<svg role="img" viewBox="0 0 72 72" xmlns="http://www.w3.org/2000/svg" id="Mercadopago--Streamline-Simple-Icons" height="72" width="72">
  <desc>
    Mercadopago Streamline Icon: https://streamlinehq.com
  </desc>
  <title>Mercado Pago</title>
  <path d="M33.345 49.437a2.79 2.781 0 0 1 -2.8169999999999997 -2.658c-0.006 -0.126 -0.018000000000000002 -0.46499999999999997 -0.309 -0.46499999999999997 -0.12 0 -0.22199999999999998 0.069 -0.339 0.177 -0.336 0.309 -0.762 0.618 -1.3800000000000001 0.618a2.448 2.4419999999999997 0 0 1 -0.915 -0.198c-1.605 -0.642 -1.6260000000000001 -1.734 -1.5630000000000002 -2.175 0.018000000000000002 -0.11399999999999999 0.021 -0.24 -0.06 -0.33l-0.096 -0.09h-0.10200000000000001c-0.081 0 -0.165 0.036000000000000004 -0.279 0.11699999999999999a2.364 2.358 0 0 1 -1.362 0.48 2.0999999999999996 2.097 0 0 1 -0.759 -0.15000000000000002c-2.1239999999999997 -0.81 -1.9500000000000002 -2.7840000000000003 -1.851 -3.3779999999999997 0.015 -0.123 -0.015 -0.21599999999999997 -0.09 -0.276l-0.15000000000000002 -0.12 -0.14100000000000001 0.129a2.184 2.178 0 0 1 -1.5150000000000001 0.609 2.19 2.184 0 0 1 -2.1959999999999997 -2.175c0 -1.2000000000000002 0.984 -2.166 2.1959999999999997 -2.166 1.092 0 2.0250000000000004 0.81 2.163 1.8900000000000001l0.078 0.585 0.33 -0.495c0.03 -0.05399999999999999 0.921 -1.3800000000000001 2.556 -1.3800000000000001 0.306 0 0.63 0.048 0.948 0.15000000000000002 1.302 0.39 1.524 1.56 1.557 2.04 0.024 0.28200000000000003 0.22499999999999998 0.30000000000000004 0.27 0.30000000000000004 0.11099999999999999 0 0.192 -0.07200000000000001 0.249 -0.135a2.238 2.232 0 0 1 1.62 -0.675c0.384 0 0.789 0.09 1.206 0.27 2.07 0.879 1.137 3.4739999999999998 1.1219999999999999 3.5010000000000003 -0.17400000000000002 0.43199999999999994 -0.183 0.621 -0.015 0.732l0.081 0.039h0.06c0.09 0 0.21000000000000002 -0.042 0.402 -0.10500000000000001 0.279 -0.096 0.705 -0.24 1.101 -0.24a2.832 2.8259999999999996 0 0 1 2.82 2.79 2.8080000000000003 2.802 0 0 1 -2.82 2.7840000000000003zm21.906 -12.513000000000002c-3.4139999999999997 -2.94 -11.303999999999998 -9.72 -13.443 -11.31 -1.218 -0.9059999999999999 -2.055 -1.3860000000000001 -2.7840000000000003 -1.5990000000000002a4.677 4.662 0 0 0 -1.368 -0.21000000000000002c-0.546 0 -1.1280000000000001 0.096 -1.7399999999999998 0.28500000000000003 -1.3800000000000001 0.43499999999999994 -2.754 1.5150000000000001 -4.086 2.562l-0.069 0.05399999999999999c-1.242 0.972 -2.52 1.98 -3.492 2.19a5.958 5.9399999999999995 0 0 1 -1.29 0.14700000000000002c-1.0859999999999999 0 -2.061 -0.312 -2.43 -0.774 -0.06 -0.07500000000000001 -0.021 -0.198 0.12 -0.375l0.024 -0.024 3 -3.2009999999999996c2.349 -2.322 4.574999999999999 -4.518 9.69 -4.635h0.255c3.186 0 6.36 1.407 6.720000000000001 1.572a21.09 21.09 0 0 0 9.168 2.1719999999999997c3.228 0 6.564 -0.789 10.062000000000001 -2.3850000000000002a27.405 27.33 0 0 0 -1.215 -0.9510000000000001c-3.0749999999999997 1.32 -6.009 1.98 -8.838000000000001 1.98 -2.886 0 -5.775 -0.687 -8.574 -2.04 -0.15000000000000002 -0.066 -3.66 -1.7009999999999998 -7.32 -1.71 -0.096 0 -0.195 0 -0.28800000000000003 0.006 -4.302 0.099 -6.720000000000001 1.608 -8.346 2.928 -1.584 0.039 -2.9459999999999997 0.41400000000000003 -4.164 0.75 -1.083 0.30000000000000004 -2.019 0.558 -2.937 0.5549999999999999 -0.375 0 -1.0499999999999998 -0.03 -1.1099999999999999 -0.036000000000000004 -1.0499999999999998 -0.03 -6.345000000000001 -1.311 -10.553999999999998 -2.886 -0.42899999999999994 0.30000000000000004 -0.8400000000000001 0.609 -1.2449999999999999 0.9299999999999999 4.398 1.779 9.75 3.159 11.436 3.267 0.471 0.03 0.9690000000000001 0.081 1.4729999999999999 0.081 1.116 0 2.232 -0.309 3.3120000000000003 -0.609 0.639 -0.177 1.338 -0.369 2.0759999999999996 -0.51l-0.5880000000000001 0.5820000000000001 -3.0509999999999997 3.261c-0.24 0.24 -0.762 0.8819999999999999 -0.42000000000000004 1.6710000000000003a2.1149999999999998 2.109 0 0 0 0.804 0.8759999999999999c0.729 0.486 2.031 0.81 3.24 0.8130000000000001 0.45599999999999996 0 0.891 -0.045 1.29 -0.132 1.281 -0.28500000000000003 2.622 -1.344 4.047 -2.46 1.131 -0.8879999999999999 2.739 -2.016 3.969 -2.346a4.482 4.47 0 0 1 1.1099999999999999 -0.15000000000000002 1.833 1.83 0 0 1 0.28500000000000003 0.015c0.81 0.10200000000000001 1.5990000000000002 0.375 3.0089999999999995 1.416 2.505 1.8599999999999999 13.593 11.445 13.698 11.538 0.006 0.006 0.714 0.609 0.66 1.6110000000000002 -0.021 0.558 -0.33 1.056 -0.8819999999999999 1.3980000000000001a2.706 2.7 0 0 1 -1.452 0.44999999999999996 2.412 2.406 0 0 1 -1.284 -0.372c-0.042 -0.03 -3.84 -3.471 -5.2379999999999995 -4.629 -0.22199999999999998 -0.18 -0.43799999999999994 -0.34500000000000003 -0.66 -0.34500000000000003a0.366 0.366 0 0 0 -0.28800000000000003 0.135c-0.21899999999999997 0.27 0.03 0.636 0.315 0.8819999999999999l4.4399999999999995 4.41c0.006 0 0.552 0.51 0.612 1.185 0.036000000000000004 0.732 -0.318 1.341 -1.0499999999999998 1.818a2.871 2.8649999999999998 0 0 1 -1.578 0.513 2.298 2.292 0 0 1 -1.26 -0.381l-0.642 -0.618a63.105000000000004 62.934000000000005 0 0 0 -3.24 -3.0269999999999997c-0.21599999999999997 -0.17400000000000002 -0.44399999999999995 -0.336 -0.663 -0.336a0.381 0.381 0 0 0 -0.28200000000000003 0.11399999999999999c-0.099 0.11099999999999999 -0.168 0.309 0.084 0.636a2.094 2.088 0 0 0 0.22499999999999998 0.249l3.234 3.594c0.03 0.03 0.666 0.78 0.07200000000000001 1.533l-0.11399999999999999 0.14400000000000002a3.54 3.534 0 0 1 -0.30000000000000004 0.28800000000000003c-0.552 0.44999999999999996 -1.29 0.492 -1.581 0.492a2.4000000000000004 2.394 0 0 1 -0.44099999999999995 -0.036000000000000004c-0.318 -0.05399999999999999 -0.534 -0.14400000000000002 -0.636 -0.267l-0.039 -0.039c-0.18 -0.18 -1.806 -1.827 -3.162 -2.94 -0.177 -0.15000000000000002 -0.399 -0.33 -0.63 -0.33a0.384 0.384 0 0 0 -0.28800000000000003 0.126c-0.27 0.28800000000000003 0.132 0.72 0.30000000000000004 0.879l2.7600000000000002 3.0089999999999995a0.612 0.612 0 0 1 -0.099 0.186c-0.099 0.132 -0.43199999999999994 0.46499999999999997 -1.4369999999999998 0.5880000000000001a2.73 2.721 0 0 1 -0.366 0.021c-1.035 0 -2.136 -0.492 -2.706 -0.792a4.029 4.0200000000000005 0 0 0 0.39 -1.7279999999999998 4.104 4.095 0 0 0 -4.26 -4.071c0.07200000000000001 -1.026 -0.07500000000000001 -2.9699999999999998 -2.0909999999999997 -3.822a4.365 4.356 0 0 0 -1.7249999999999999 -0.375c-0.43799999999999994 0 -0.861 0.07500000000000001 -1.26 0.22499999999999998a3.459 3.4499999999999997 0 0 0 -2.013 -1.6919999999999997 4.5600000000000005 4.545 0 0 0 -1.482 -0.255c-0.8400000000000001 0 -1.6110000000000002 0.24 -2.301 0.726a3.5039999999999996 3.495 0 0 0 -2.709 -1.29 3.519 3.51 0 0 0 -2.46 1.0050000000000001c-0.861 -0.651 -4.275 -2.79 -13.401 -4.839a52.17 52.032000000000004 0 0 1 -2.0759999999999996 -0.567 14.466000000000001 14.46 0 0 0 -0.23099999999999998 1.482l2.0100000000000002 0.471c9.324 2.0460000000000003 12.408000000000001 4.173 12.927 4.574999999999999a3.435 3.4259999999999997 0 0 0 -0.27 1.326 3.4799999999999995 3.4739999999999998 0 0 0 4.1339999999999995 3.396c0.28800000000000003 1.401 1.218 2.463 2.637 3.0089999999999995a3.495 3.4859999999999998 0 0 0 1.2449999999999999 0.24c0.27 0 0.5369999999999999 -0.036000000000000004 0.798 -0.10200000000000001 0.258 0.66 0.8459999999999999 1.479 2.166 2.004a3.6990000000000003 3.69 0 0 0 1.371 0.28200000000000003c0.366 0 0.723 -0.066 1.065 -0.189a4.119 4.11 0 0 0 3.8069999999999995 2.5229999999999997c1.1099999999999999 0.006 2.178 -0.44099999999999995 2.955 -1.23 0.663 0.363 2.064 1.0230000000000001 3.489 1.0230000000000001 0.18 0 0.354 -0.006 0.5249999999999999 -0.03 1.41 -0.177 2.0669999999999997 -0.72 2.367 -1.146a1.7129999999999999 1.71 0 0 0 0.14400000000000002 -0.23399999999999999c0.33 0.096 0.7020000000000001 0.17400000000000002 1.119 0.17400000000000002 0.765 0 1.5030000000000001 -0.258 2.25 -0.795 0.732 -0.522 1.254 -1.272 1.332 -1.911v-0.03c0.249 0.051000000000000004 0.501 0.078 0.753 0.078 0.795 0 1.581 -0.246 2.319 -0.726 1.44 -0.9299999999999999 1.6860000000000002 -2.145 1.6620000000000001 -2.94a3.84 3.8369999999999997 0 0 0 2.934 -0.5820000000000001 3.12 3.12 0 0 0 1.506 -2.4240000000000004 3.2640000000000002 3.255 0 0 0 -0.48 -1.959c2.412 -1.026 7.908 -3.0089999999999995 14.385 -4.449a14.202 14.163 0 0 0 -0.201 -1.476 83.226 83.001 0 0 0 -15.147000000000002 4.86zm15.369 -2.289c0 12.081 -15.498000000000001 21.879 -34.611000000000004 21.879 -19.116 0 -34.614000000000004 -9.798 -34.614000000000004 -21.879 0 -12.084 15.495000000000001 -21.879 34.617 -21.879 19.113 0 34.611000000000004 9.795 34.611000000000004 21.879zm1.3800000000000001 0.012c0 -12.816 -16.122 -23.265 -36 -23.265S0.006 21.831 0.006 34.650000000000006L0 36.012c0 13.599 14.085 24.608999999999998 35.997 24.608999999999998 22.041 0 36 -11.01 36 -24.612000000000002z" fill="#f1f063" stroke-width="3"></path>
</svg>